<?xml version="1.0" encoding="UTF-8" standalone="no"?>
<!-- Created with Inkscape (http://www.inkscape.org/) -->

<svg
   xmlns:dc="http://purl.org/dc/elements/1.1/"
   xmlns:cc="http://creativecommons.org/ns#"
   xmlns:rdf="http://www.w3.org/1999/02/22-rdf-syntax-ns#"
   xmlns:svg="http://www.w3.org/2000/svg"
   xmlns="http://www.w3.org/2000/svg"
   xmlns:sodipodi="http://sodipodi.sourceforge.net/DTD/sodipodi-0.dtd"
   xmlns:inkscape="http://www.inkscape.org/namespaces/inkscape"
   width="1052.3622"
   height="744.09448"
   id="svg2"
   version="1.1"
   inkscape:version="0.48.2 r9819"
   sodipodi:docname="New document 1">
  <defs
     id="defs4" />
  <sodipodi:namedview
     id="base"
     pagecolor="#e6e6e6"
     bordercolor="#666666"
     borderopacity="1.0"
     inkscape:pageopacity="1"
     inkscape:pageshadow="2"
     inkscape:zoom="0.33589188"
     inkscape:cx="533.97622"
     inkscape:cy="406.09361"
     inkscape:document-units="px"
     inkscape:current-layer="text2985"
     showgrid="false"
     inkscape:window-width="1920"
     inkscape:window-height="1018"
     inkscape:window-x="-8"
     inkscape:window-y="-8"
     inkscape:window-maximized="1" />
  <metadata
     id="metadata7">
    <rdf:RDF>
      <cc:Work
         rdf:about="">
        <dc:format>image/svg+xml</dc:format>
        <dc:type
           rdf:resource="http://purl.org/dc/dcmitype/StillImage" />
        <dc:title></dc:title>
      </cc:Work>
    </rdf:RDF>
  </metadata>
  <g
     inkscape:label="Layer 1"
     inkscape:groupmode="layer"
     id="layer1"
     transform="translate(0,-308.2677)">
    <g
       style="font-size:300px;font-style:normal;font-variant:normal;font-weight:bold;font-stretch:normal;line-height:125%;letter-spacing:0px;word-spacing:0px;fill:#000000;fill-opacity:1;stroke:none;font-family:Segoe UI;-inkscape-font-specification:Segoe UI Bold"
       id="text2985">
      <path
         d="m 460.14333,742.24536 -46.14257,0 0,-83.34961 c -1.2e-4,-23.24208 -8.3009,-34.86316 -24.90235,-34.86328 -8.0079,1.2e-4 -14.59969,3.07629 -19.77539,9.22852 -5.17585,6.15244 -7.76374,13.96494 -7.76367,23.4375 l 0,85.54687 -46.28906,0 0,-150 46.28906,0 c 29.32616,0.75978 25.06213,-2.71912 48.7793,-3.66211 33.20297,1.6e-4 49.80452,20.6056 49.80468,61.81641 z"
         style="fill:#ffffff;fill-opacity:1;font-family:Segoe UI;-inkscape-font-specification:Segoe UI Bold"
         id="path3866"
         inkscape:connector-curvature="0"
         sodipodi:nodetypes="ccscsscccccsc" />
      <path
         d="m 276.15896,742.24536 -46.14258,0 c -22.09789,0.64267 -23.93723,2.6849 -46.58203,3.66211 -34.76566,0 -52.14846,-21.0449 -52.14844,-63.13476 l 0,-90.52735 46.14258,0 0,86.42578 c -6e-5,21.19145 8.39837,31.78714 25.19531,31.78711 8.30069,3e-5 14.94131,-2.90524 19.92188,-8.71582 4.98035,-5.8105 7.47058,-13.69623 7.4707,-23.65722 l 0,-85.83985 46.14258,0 z"
         style="fill:#ffffff;fill-opacity:1;font-family:Segoe UI;-inkscape-font-specification:Segoe UI Bold"
         id="path3864"
         inkscape:connector-curvature="0"
         sodipodi:nodetypes="cccsccssccccc" />
      <path
         d="m 643.98122,725.10669 c -1.6e-4,27.83202 -8.0568,49.38962 -24.16992,64.67285 -16.11341,15.28314 -39.45323,22.92474 -70.01953,22.92481 -20.21489,-7e-5 -36.2305,-2.88093 -48.04687,-8.64258 l 0,-38.96485 c 15.42964,8.98435 31.0058,13.47653 46.72851,13.47657 15.62491,-4e-5 27.73428,-4.12601 36.32813,-12.37793 8.59363,-8.25197 12.8905,-19.45802 12.89062,-33.61817 l 0,-11.86523 -0.58594,0 c -10.54698,16.79688 -26.12314,25.19531 -46.72851,25.19531 -19.14068,0 -34.32621,-6.73828 -45.55664,-20.21484 -11.23049,-13.47654 -16.84572,-31.54292 -16.84571,-54.19922 -1e-5,-25.39053 6.24999,-45.55653 18.75,-60.49805 12.49996,-14.94126 28.95502,-22.41195 49.36524,-22.41211 27.37777,0.54089 26.932,1.44875 48.1254,2.73013 l 39.76522,0.93198 z m -45.70312,-54.93164 0,-11.86524 c -1.2e-4,-9.47256 -2.80774,-17.5536 -8.42285,-24.24316 -5.61534,-6.68934 -12.91514,-10.03406 -21.89942,-10.03418 -10.25398,1.2e-4 -18.31062,4.00402 -24.16992,12.01172 -5.85943,8.00791 -8.78912,19.2872 -8.78906,33.83789 -6e-5,12.50006 2.78314,22.38775 8.34961,29.66309 5.56633,7.27542 13.18351,10.91311 22.85156,10.91308 9.57022,3e-5 17.30947,-3.68649 23.21777,-11.05957 5.90809,-7.373 8.86219,-17.1142 8.86231,-29.22363 z"
         style="fill:#eb5c32;fill-opacity:1;font-family:Segoe UI;-inkscape-font-specification:Segoe UI Bold"
         id="path3868"
         inkscape:connector-curvature="0"
         sodipodi:nodetypes="sssccscsccsssscccsscccsscsss" />
      <path
         d="m 706.0906,568.51489 c -7.81254,1.8e-4 -14.20901,-2.31916 -19.18945,-6.95801 -4.98049,-4.63848 -7.47072,-10.32695 -7.47071,-17.06542 -10e-6,-6.93339 2.49022,-12.59745 7.47071,-16.99219 4.98044,-4.39431 11.37691,-6.59158 19.18945,-6.5918 7.9101,2.2e-4 14.331,2.19749 19.26269,6.5918 4.93158,4.39474 7.3974,10.0588 7.39747,16.99219 -7e-5,7.03144 -2.46589,12.79315 -7.39747,17.28515 -4.93169,4.49236 -11.35259,6.73846 -19.26269,6.73828 z m 22.85156,173.73047 -46.28906,0 0,-150 46.28906,0 z"
         style="fill:#eb5c32;fill-opacity:1;font-family:Segoe UI;-inkscape-font-specification:Segoe UI Bold"
         id="path3870" />
      <path
         d="m 845.82612,740.48755 c -6.83604,3.61328 -17.13876,5.41992 -30.9082,5.41992 -32.61724,0 -48.92581,-16.94335 -48.92578,-50.83008 -0.6523,-79.5782 0,-79.94495 0,-135.20508 l 46.14258,-13.18359 0,45.55664 33.6914,0 0,34.13086 -33.6914,0 0,60.64453 c -8e-5,15.62504 6.20109,23.43753 18.60351,23.4375 4.88271,3e-5 9.91201,-1.41598 15.08789,-4.24804 z"
         style="fill:#eb5c32;fill-opacity:1;font-family:Segoe UI;-inkscape-font-specification:Segoe UI Bold"
         id="path3872"
         inkscape:connector-curvature="0"
         sodipodi:nodetypes="cscccccccsscc" />
    </g>
  </g>
</svg>
