<?xml version="1.0" encoding="UTF-8" standalone="no"?>
<!-- Created with Inkscape (http://www.inkscape.org/) -->

<svg
   xmlns:dc="http://purl.org/dc/elements/1.1/"
   xmlns:cc="http://creativecommons.org/ns#"
   xmlns:rdf="http://www.w3.org/1999/02/22-rdf-syntax-ns#"
   xmlns:svg="http://www.w3.org/2000/svg"
   xmlns="http://www.w3.org/2000/svg"
   xmlns:xlink="http://www.w3.org/1999/xlink"
   xmlns:sodipodi="http://sodipodi.sourceforge.net/DTD/sodipodi-0.dtd"
   xmlns:inkscape="http://www.inkscape.org/namespaces/inkscape"
   width="744.09448819"
   height="1052.3622047"
   id="svg3793"
   version="1.1"
   inkscape:version="0.48.2 r9819"
   inkscape:export-filename="D:\GitHub\ungit\public\images\throbber.png"
   inkscape:export-xdpi="21.369331"
   inkscape:export-ydpi="21.369331"
   sodipodi:docname="New document 3">
  <defs
     id="defs3795">
    <marker
       inkscape:stockid="TriangleInL"
       orient="auto"
       refY="0.0"
       refX="0.0"
       id="TriangleInL"
       style="overflow:visible">
      <path
         id="path4670"
         d="M 5.77,0.0 L -2.88,5.0 L -2.88,-5.0 L 5.77,0.0 z "
         style="fill-rule:evenodd;stroke:#000000;stroke-width:1.0pt;marker-start:none"
         transform="scale(-0.8)" />
    </marker>
    <marker
       inkscape:stockid="Arrow1Lstart"
       orient="auto"
       refY="0.0"
       refX="0.0"
       id="Arrow1Lstart"
       style="overflow:visible">
      <path
         id="path4536"
         d="M 0.0,0.0 L 5.0,-5.0 L -12.5,0.0 L 5.0,5.0 L 0.0,0.0 z "
         style="fill-rule:evenodd;stroke:#000000;stroke-width:1.0pt;marker-start:none"
         transform="scale(0.8) translate(12.5,0)" />
    </marker>
  </defs>
  <sodipodi:namedview
     id="base"
     pagecolor="#ffffff"
     bordercolor="#666666"
     borderopacity="1.0"
     inkscape:pageopacity="0.0"
     inkscape:pageshadow="2"
     inkscape:zoom="0.71"
     inkscape:cx="220.69425"
     inkscape:cy="1176.047"
     inkscape:document-units="px"
     inkscape:current-layer="g5746"
     showgrid="false"
     inkscape:window-width="1920"
     inkscape:window-height="1018"
     inkscape:window-x="-8"
     inkscape:window-y="-8"
     inkscape:window-maximized="1" />
  <metadata
     id="metadata3798">
    <rdf:RDF>
      <cc:Work
         rdf:about="">
        <dc:format>image/svg+xml</dc:format>
        <dc:type
           rdf:resource="http://purl.org/dc/dcmitype/StillImage" />
        <dc:title></dc:title>
      </cc:Work>
    </rdf:RDF>
  </metadata>
  <g
     inkscape:label="Layer 1"
     inkscape:groupmode="layer"
     id="layer1">
    <g
       id="g5746"
       inkscape:export-xdpi="21.369331"
       inkscape:export-ydpi="21.369331"
       inkscape:export-filename="D:\GitHub\ungit\public\images\throbber.png">
      <g
         id="g6112"
         inkscape:tile-cx="51.059418"
         inkscape:tile-cy="-249.40243"
         inkscape:tile-w="150.00616"
         inkscape:tile-h="150.00809"
         inkscape:tile-x0="-23.943665"
         inkscape:tile-y0="-324.40648"
         transform="translate(0,-1.0267057e-4)">
        <path
           transform="matrix(0.89495797,0,0,0.97706418,-2.5150913,-3.999971)"
           d="m 143.66197,-251.15895 c 0,42.39369 -37.5198,76.76057 -83.802816,76.76057 -46.283019,0 -83.802819,-34.36688 -83.802819,-76.76057 0,-42.39369 37.5198,-76.76057 83.802819,-76.76057 46.283016,0 83.802816,34.36688 83.802816,76.76057 z"
           sodipodi:ry="76.760567"
           sodipodi:rx="83.802818"
           sodipodi:cy="-251.15895"
           sodipodi:cx="59.859154"
           id="path5376"
           style="fill:none;stroke:#cdcdcd;stroke-width:19.71425056;stroke-linecap:butt;stroke-miterlimit:4;stroke-opacity:1;stroke-dasharray:none;stroke-dashoffset:0;marker-start:none"
           sodipodi:type="arc" />
        <path
           style="fill:none;stroke:#616161;stroke-width:18.43499947;stroke-linecap:butt;stroke-miterlimit:4;stroke-opacity:1;stroke-dasharray:none;stroke-dashoffset:0;marker-start:none"
           d="m 126,-246.21875 c 0.0439,-1.05385 0.0625,-2.12286 0.0625,-3.1875 0,-41.42136 -33.578644,-75 -75,-75 -0.11476,0 -0.229111,-5.1e-4 -0.34375,0"
           id="path4351"
           inkscape:connector-curvature="0"
           sodipodi:nodetypes="cssc" />
      </g>
      <use
         x="0"
         y="0"
         inkscape:tiled-clone-of="#g6112"
         xlink:href="#g6112"
         id="use6116"
         transform="translate(168.48532,0)"
         width="744.09448"
         height="1052.3622" />
      <use
         x="0"
         y="0"
         inkscape:tiled-clone-of="#g6112"
         xlink:href="#g6112"
         transform="matrix(0.98480775,0.17364818,-0.17364818,0.98480775,294.43807,-12.658809)"
         id="use6118"
         width="744.09448"
         height="1052.3622" />
      <use
         x="0"
         y="0"
         inkscape:tiled-clone-of="#g6112"
         xlink:href="#g6112"
         transform="matrix(0.93969262,0.34202014,-0.34202014,0.93969262,423.23457,-32.50691)"
         id="use6120"
         width="744.09448"
         height="1052.3622" />
      <use
         x="0"
         y="0"
         inkscape:tiled-clone-of="#g6112"
         xlink:href="#g6112"
         transform="matrix(0.8660254,0.5,-0.5,0.8660254,556.08074,-58.945276)"
         id="use6122"
         width="744.09448"
         height="1052.3622" />
      <use
         x="0"
         y="0"
         inkscape:tiled-clone-of="#g6112"
         xlink:href="#g6112"
         transform="matrix(0.76604444,0.64278761,-0.64278761,0.76604444,694.05946,-91.170588)"
         id="use6124"
         width="744.09448"
         height="1052.3622" />
      <use
         x="0"
         y="0"
         inkscape:tiled-clone-of="#g6112"
         xlink:href="#g6112"
         transform="matrix(0.64278761,0.76604444,-0.76604444,0.64278761,838.09765,-128.2037)"
         id="use6126"
         width="744.09448"
         height="1052.3622" />
      <use
         x="0"
         y="0"
         inkscape:tiled-clone-of="#g6112"
         xlink:href="#g6112"
         transform="matrix(0.5,0.8660254,-0.8660254,0.5,988.93813,-168.91937)"
         id="use6128"
         width="744.09448"
         height="1052.3622" />
      <use
         x="0"
         y="0"
         inkscape:tiled-clone-of="#g6112"
         xlink:href="#g6112"
         transform="matrix(0.34202014,0.93969262,-0.93969262,0.34202014,1147.117,-212.08049)"
         id="use6130"
         width="744.09448"
         height="1052.3622" />
      <use
         x="0"
         y="0"
         inkscape:tiled-clone-of="#g6112"
         xlink:href="#g6112"
         transform="matrix(0.17364818,0.98480775,-0.98480775,0.17364818,1312.9475,-256.37561)"
         id="use6132"
         width="744.09448"
         height="1052.3622" />
      <use
         x="0"
         y="0"
         inkscape:tiled-clone-of="#g6112"
         xlink:href="#g6112"
         transform="matrix(0,1,-1,0,1486.5101,-300.46195)"
         id="use6134"
         width="744.09448"
         height="1052.3622" />
      <use
         x="0"
         y="0"
         inkscape:tiled-clone-of="#g6112"
         xlink:href="#g6112"
         transform="matrix(-0.17364818,0.98480775,-0.98480775,-0.17364818,1667.6542,-342.99452)"
         id="use6136"
         width="744.09448"
         height="1052.3622" />
      <use
         x="0"
         y="0"
         inkscape:tiled-clone-of="#g6112"
         xlink:href="#g6112"
         transform="matrix(-0.34202014,0.93969262,-0.93969262,-0.34202014,1855.9877,-382.68334)"
         id="use6138"
         width="744.09448"
         height="1052.3622" />
      <use
         x="0"
         y="0"
         inkscape:tiled-clone-of="#g6112"
         xlink:href="#g6112"
         transform="matrix(-0.5,0.8660254,-0.8660254,-0.5,2050.9113,-418.3225)"
         id="use6140"
         width="744.09448"
         height="1052.3622" />
      <use
         x="0"
         y="0"
         inkscape:tiled-clone-of="#g6112"
         xlink:href="#g6112"
         transform="matrix(-0.64278761,0.76604444,-0.76604444,-0.64278761,2251.622,-448.8291)"
         id="use6142"
         width="744.09448"
         height="1052.3622" />
      <use
         x="0"
         y="0"
         inkscape:tiled-clone-of="#g6112"
         xlink:href="#g6112"
         transform="matrix(-0.76604444,0.64278761,-0.64278761,-0.76604444,2457.1404,-473.27623)"
         id="use6144"
         width="744.09448"
         height="1052.3622" />
      <use
         x="0"
         y="0"
         inkscape:tiled-clone-of="#g6112"
         xlink:href="#g6112"
         transform="matrix(-0.8660254,0.5,-0.5,-0.8660254,2666.3414,-490.92107)"
         id="use6146"
         width="744.09448"
         height="1052.3622" />
      <use
         x="0"
         y="0"
         inkscape:tiled-clone-of="#g6112"
         xlink:href="#g6112"
         transform="matrix(-0.93969262,0.34202014,-0.34202014,-0.93969262,2877.9878,-501.2275)"
         id="use6148"
         width="744.09448"
         height="1052.3622" />
      <use
         x="0"
         y="0"
         inkscape:tiled-clone-of="#g6112"
         xlink:href="#g6112"
         transform="matrix(-0.98480775,0.17364818,-0.17364818,-0.98480775,3090.7683,-503.88234)"
         id="use6150"
         width="744.09448"
         height="1052.3622" />
      <use
         x="0"
         y="0"
         inkscape:tiled-clone-of="#g6112"
         xlink:href="#g6112"
         transform="matrix(-1,0,0,-1,3303.3399,-498.80507)"
         id="use6152"
         width="744.09448"
         height="1052.3622" />
      <use
         x="0"
         y="0"
         inkscape:tiled-clone-of="#g6112"
         xlink:href="#g6112"
         transform="matrix(-0.98480775,-0.17364818,0.17364818,-0.98480775,3514.3578,-486.14626)"
         id="use6154"
         width="744.09448"
         height="1052.3622" />
      <use
         x="0"
         y="0"
         inkscape:tiled-clone-of="#g6112"
         xlink:href="#g6112"
         transform="matrix(-0.93969262,-0.34202014,0.34202014,-0.93969262,3722.532,-466.29816)"
         id="use6156"
         width="744.09448"
         height="1052.3622" />
      <use
         x="0"
         y="0"
         inkscape:tiled-clone-of="#g6112"
         xlink:href="#g6112"
         transform="matrix(-0.8660254,-0.5,0.5,-0.8660254,3926.6565,-439.85979)"
         id="use6158"
         width="744.09448"
         height="1052.3622" />
      <use
         x="0"
         y="0"
         inkscape:tiled-clone-of="#g6112"
         xlink:href="#g6112"
         transform="matrix(-0.76604444,-0.64278761,0.64278761,-0.76604444,4125.6484,-407.63448)"
         id="use6160"
         width="744.09448"
         height="1052.3622" />
      <use
         x="0"
         y="0"
         inkscape:tiled-clone-of="#g6112"
         xlink:href="#g6112"
         transform="matrix(-0.64278761,-0.76604444,0.76604444,-0.64278761,4318.5808,-370.60137)"
         id="use6162"
         width="744.09448"
         height="1052.3622" />
      <use
         x="0"
         y="0"
         inkscape:tiled-clone-of="#g6112"
         xlink:href="#g6112"
         transform="matrix(-0.5,-0.8660254,0.8660254,-0.5,4504.711,-329.88569)"
         id="use6164"
         width="744.09448"
         height="1052.3622" />
      <use
         x="0"
         y="0"
         inkscape:tiled-clone-of="#g6112"
         xlink:href="#g6112"
         transform="matrix(-0.34202014,-0.93969262,0.93969262,-0.34202014,4683.5027,-286.72458)"
         id="use6166"
         width="744.09448"
         height="1052.3622" />
      <use
         x="0"
         y="0"
         inkscape:tiled-clone-of="#g6112"
         xlink:href="#g6112"
         transform="matrix(-0.17364818,-0.98480775,0.98480775,-0.17364818,4854.6429,-242.42945)"
         id="use6168"
         width="744.09448"
         height="1052.3622" />
      <use
         x="0"
         y="0"
         inkscape:tiled-clone-of="#g6112"
         xlink:href="#g6112"
         transform="matrix(0,-1,1,0,5018.051,-198.34312)"
         id="use6170"
         width="744.09448"
         height="1052.3622" />
      <use
         x="0"
         y="0"
         inkscape:tiled-clone-of="#g6112"
         xlink:href="#g6112"
         transform="matrix(0.17364818,-0.98480775,0.98480775,0.17364818,5173.8775,-155.81055)"
         id="use6172"
         width="744.09448"
         height="1052.3622" />
      <use
         x="0"
         y="0"
         inkscape:tiled-clone-of="#g6112"
         xlink:href="#g6112"
         transform="matrix(0.34202014,-0.93969262,0.93969262,0.34202014,5322.5147,-116.12172)"
         id="use6174"
         width="744.09448"
         height="1052.3622" />
      <use
         x="0"
         y="0"
         inkscape:tiled-clone-of="#g6112"
         xlink:href="#g6112"
         transform="matrix(0.5,-0.8660254,0.8660254,0.5,5464.5616,-80.48257)"
         id="use6176"
         width="744.09448"
         height="1052.3622" />
      <use
         x="0"
         y="0"
         inkscape:tiled-clone-of="#g6112"
         xlink:href="#g6112"
         transform="matrix(0.64278761,-0.76604444,0.76604444,0.64278761,5600.8216,-49.975964)"
         id="use6178"
         width="744.09448"
         height="1052.3622" />
      <use
         x="0"
         y="0"
         inkscape:tiled-clone-of="#g6112"
         xlink:href="#g6112"
         transform="matrix(0.76604444,-0.64278761,0.64278761,0.76604444,5732.2739,-25.528835)"
         id="use6180"
         width="744.09448"
         height="1052.3622" />
      <use
         x="0"
         y="0"
         inkscape:tiled-clone-of="#g6112"
         xlink:href="#g6112"
         transform="matrix(0.8660254,-0.5,0.5,0.8660254,5860.0435,-7.8839936)"
         id="use6182"
         width="744.09448"
         height="1052.3622" />
      <use
         x="0"
         y="0"
         inkscape:tiled-clone-of="#g6112"
         xlink:href="#g6112"
         transform="matrix(0.93969262,-0.34202014,0.34202014,0.93969262,5985.3677,2.4224295)"
         id="use6184"
         width="744.09448"
         height="1052.3622" />
    </g>
  </g>
</svg>
